<svg version="1.1" xmlns="http://www.w3.org/2000/svg" xmlns:xlink="http://www.w3.org/1999/xlink" width="48" height="48"><defs><linearGradient x1="0" y1="0" x2="0" y2="0" gradientUnits="userSpaceOnUse" id="color-1"><stop offset="0.01" stop-color="#000000" stop-opacity="0.3"></stop><stop offset="1" stop-color="#000000" stop-opacity="0"></stop></linearGradient><filter id="dropshadow-base"><feColorMatrix type="matrix" values="0 0 0 0 0  0 0 0 0 0  0 0 0 0 0  0 0 0 .8 0"></feColorMatrix> <feOffset dx="0" dy="1"></feOffset> <feGaussianBlur stdDeviation="1"></feGaussianBlur> <feComposite in="SourceGraphic"></feComposite></filter><filter id="dropshadow-banner" x="-10%" y="-10%" width="120%" height="130%"><feColorMatrix type="matrix" values="0 0 0 0 0  0 0 0 0 0  0 0 0 0 0  0 0 0 .4 0"></feColorMatrix> <feOffset dx="0" dy="1"></feOffset> <feGaussianBlur stdDeviation="0.5"></feGaussianBlur> <feComposite in="SourceGraphic"></feComposite></filter></defs><g fill="none" fill-rule="nonzero" stroke="none" stroke-width="none" stroke-linecap="butt" stroke-linejoin="miter" stroke-miterlimit="10" stroke-dasharray="" stroke-dashoffset="0" font-family="none" font-weight="none" font-size="none" text-anchor="none" style="mix-blend-mode: normal"><path d="M2,24c0,-12.15026 9.84974,-22 22,-22c12.15026,0 22,9.84974 22,22c0,12.15026 -9.84974,22 -22,22c-12.15026,0 -22,-9.84974 -22,-22z" id="base 1 9" fill-opacity="0" fill="#f7f7eb" stroke-width="1"></path><path d="" fill="url(#color-1)" stroke-width="1"></path><path d="M28.65572,-0.20189c0.13264,0.11938 0.57036,0.21223 1.19377,0.23875c1.10093,0.03979 2.49366,0.34487 2.94464,0.64994c0.17243,0.10611 0.41119,0.42445 0.54383,0.703c0.34487,0.76932 0.67647,0.96828 1.56517,0.96828c0.74279,0 1.55191,0.29181 1.55191,0.55709c0,0.05306 0.21223,0.3316 0.46425,0.59689c0.25202,0.26528 0.47751,0.55709 0.47751,0.63668c0.01326,0.06632 0.02653,0.19896 0.03979,0.26528c0,0.07958 0.22549,0.3316 0.47751,0.57036c0.27855,0.26528 0.35813,0.38466 0.21223,0.3316c-0.17243,-0.05306 -0.22549,-0.03979 -0.15917,0.06632c0.05306,0.09285 0.17243,0.15917 0.27855,0.15917c0.09285,0 0.22549,0.13264 0.27855,0.29181c0.05306,0.17243 0.22549,0.49077 0.39792,0.703c0.19896,0.26528 0.26528,0.46425 0.1857,0.58362c-0.05306,0.10611 -0.07958,0.27855 -0.02653,0.38466c0.03979,0.13264 0.01326,0.17243 -0.07958,0.10611c-0.30508,-0.1857 -0.14591,0.10611 0.35813,0.64994c0.61015,0.64994 1.28662,2.54672 0.80911,2.25491c-0.07958,-0.05306 -0.10611,0.26528 -0.05306,0.8887c0.03979,0.53057 0.07958,1.44579 0.10611,2.02942c0.01326,0.58362 0.06632,1.18051 0.13264,1.32642c0.05306,0.14591 -0.02653,0.05306 -0.1857,-0.19896l-0.27855,-0.46425l0.07958,0.46425c0.06632,0.41119 0.05306,0.43772 -0.10611,0.22549c-0.17243,-0.19896 -0.19896,-0.13264 -0.25202,0.62342c-0.05306,0.66321 -0.15917,0.98155 -0.49077,1.45906c-0.3714,0.53057 -0.39792,0.64994 -0.26528,0.90196c0.09285,0.17243 0.15917,0.63668 0.17243,1.0346c0,0.58362 -0.10611,0.96828 -0.54383,1.9233c-0.50404,1.0744 -0.78259,2.08247 -1.0346,3.72723c-0.11938,0.78259 -0.57036,1.16725 -1.2203,1.08766c-0.47751,-0.06632 -0.5173,-0.03979 -0.90196,0.54383c-0.21223,0.3316 -0.49077,0.86217 -0.61015,1.16725c-0.11938,0.30508 -0.34487,0.72953 -0.49077,0.94176c-0.15917,0.21223 -0.43772,0.82238 -0.62342,1.33968l-0.34487,0.95502l0.76932,1.00808c0.42445,0.55709 1.10093,1.37947 1.49885,1.81719c0.41119,0.45098 0.92849,1.08766 1.18051,1.41926c0.30508,0.43772 0.71626,0.76932 1.39274,1.14072l0.96828,0.5173l0.15917,-0.3714c0.19896,-0.43772 0.54383,-0.47751 0.8887,-0.09285c0.13264,0.15917 0.62342,0.45098 1.0744,0.66321c0.45098,0.19896 0.90196,0.49077 0.99481,0.64994c0.09285,0.14591 0.67647,0.68974 1.29989,1.18051c0.62342,0.50404 1.27336,1.0744 1.44579,1.24683l0.30508,0.34487l-0.27855,0.38466c-0.68974,0.96828 -3.67417,3.42215 -5.51789,4.53634c-6.64534,4.01904 -14.49772,4.921 -21.75322,2.50693c-3.66091,-1.2203 -6.68514,-3.01096 -9.6961,-5.75664c-0.91523,-0.83564 -1.2203,-1.2203 -1.64476,-2.05594c-0.39792,-0.78259 -0.61015,-1.06113 -0.91523,-1.19377c-0.22549,-0.09285 -0.41119,-0.23875 -0.41119,-0.31834c0,-0.07958 -0.15917,-0.26528 -0.34487,-0.41119c-0.1857,-0.13264 -0.68974,-0.84891 -1.12745,-1.57843l-0.78259,-1.32642l2.30796,-1.20704c1.81719,-0.96828 2.45387,-1.23357 3.03749,-1.31315c0.92849,-0.10611 4.28432,-1.52538 4.56287,-1.93657c0.10611,-0.14591 0.58362,-0.57036 1.0744,-0.94176c0.49077,-0.35813 1.26009,-1.08766 1.72434,-1.61823c0.68974,-0.79585 0.82238,-1.00808 0.75606,-1.28662c-0.15917,-0.59689 -0.3316,-1.7774 -0.31834,-2.12227c0.01326,-0.1857 0.09285,-0.01326 0.1857,0.39792c0.3714,1.53864 0.95502,2.65283 1.406,2.65283c0.1857,0 0.25202,0.06632 0.21223,0.1857c-0.05306,0.13264 -0.01326,0.17243 0.09285,0.13264c0.10611,-0.03979 0.27855,0.06632 0.39792,0.23875c0.11938,0.17243 0.22549,0.27855 0.25202,0.23875c0.01326,-0.02653 0.15917,0.02653 0.31834,0.14591c0.17243,0.11938 0.26528,0.25202 0.21223,0.29181c-0.03979,0.05306 -0.02653,0.09285 0.05306,0.09285c0.06632,0 0.39792,0.26528 0.72953,0.59689c0.42445,0.41119 0.72953,0.59689 0.98155,0.61015c1.14072,0.03979 1.48559,0.01326 1.93657,-0.1857c0.35813,-0.15917 0.5173,-0.1857 0.58362,-0.06632c0.05306,0.09285 0.03979,0.10611 -0.05306,0.05306c-0.09285,-0.05306 -0.15917,-0.06632 -0.15917,-0.01326c0,0.15917 0.61015,0.29181 0.83564,0.17243c0.17243,-0.09285 0.22549,-0.06632 0.23875,0.11938c0,0.17243 0.02653,0.1857 0.07958,0.05306c0.03979,-0.09285 0.1857,-0.29181 0.3316,-0.43772c0.17243,-0.17243 0.22549,-0.34487 0.15917,-0.53057c-0.05306,-0.1857 -0.02653,-0.23875 0.06632,-0.1857c0.07958,0.05306 0.14591,0.02653 0.14591,-0.05306c0,-0.07958 -0.10611,-0.1857 -0.22549,-0.22549c-0.35813,-0.13264 -0.58362,-0.47751 -0.39792,-0.59689c0.10611,-0.06632 0.07958,-0.10611 -0.07958,-0.10611c-0.13264,0 -0.19896,-0.06632 -0.15917,-0.13264c0.03979,-0.07958 -0.02653,-0.13264 -0.15917,-0.13264c-0.19896,0 -0.21223,-0.02653 -0.03979,-0.13264c0.15917,-0.10611 0.15917,-0.13264 -0.06632,-0.14591c-0.14591,0 -0.38466,-0.02653 -0.53057,-0.05306c-0.13264,-0.02653 -0.31834,0 -0.39792,0.05306c-0.22549,0.17243 -1.23357,-0.10611 -1.28662,-0.35813c-0.09285,-0.42445 0.15917,-0.49077 1.53864,-0.39792c0.72953,0.03979 1.48559,0.05306 1.65802,0l0.3316,-0.06632l-0.3316,-0.11938l-0.31834,-0.11938l0.30508,-0.25202c0.15917,-0.13264 0.29181,-0.29181 0.29181,-0.35813c0,-0.14591 -0.72953,-0.39792 -1.24683,-0.42445c-0.21223,0 -0.71626,-0.06632 -1.12745,-0.13264c-0.82238,-0.11938 -1.83045,-0.05306 -1.94983,0.13264c-0.03979,0.06632 -0.21223,0.11938 -0.3714,0.11938c-0.17243,0 -0.38466,0.09285 -0.47751,0.19896c-0.09285,0.11938 -0.19896,0.17243 -0.23875,0.13264c-0.03979,-0.03979 -0.14591,0 -0.23875,0.07958c-0.21223,0.17243 -0.39792,0.07958 -0.49077,-0.26528c-0.06632,-0.27855 0.42445,-1.15398 0.55709,-0.98155c0.03979,0.05306 0.29181,0.1857 0.54383,0.26528c0.42445,0.15917 0.47751,0.14591 0.86217,-0.21223c0.43772,-0.41119 0.98155,-0.72953 1.08766,-0.63668c0.02653,0.03979 -0.06632,0.10611 -0.21223,0.15917c-0.30508,0.09285 -0.3714,0.31834 -0.10611,0.34487c0.87543,0.07958 1.67128,0.06632 1.61823,-0.01326c-0.10611,-0.15917 0.57036,-0.39792 1.16725,-0.39792l0.55709,-0.01326l-0.31834,-0.25202c-0.21223,-0.1857 -0.29181,-0.35813 -0.23875,-0.54383c0.10611,-0.41119 -0.39792,-1.18051 -0.78259,-1.18051c-0.23875,0 -0.31834,0.07958 -0.3316,0.29181c0,0.19896 -0.02653,0.22549 -0.07958,0.10611c-0.02653,-0.10611 -0.15917,-0.39792 -0.26528,-0.63668c-0.22549,-0.50404 -0.14591,-0.67647 0.17243,-0.41119c0.1857,0.14591 0.23875,0.13264 0.39792,-0.07958c0.09285,-0.14591 0.23875,-0.3316 0.30508,-0.41119c0.06632,-0.07958 0.14591,-0.50404 0.1857,-0.92849c0.06632,-0.90196 0.11938,-1.12745 0.42445,-2.2947c0.11938,-0.46425 0.1857,-1.02134 0.14591,-1.2203c-0.07958,-0.39792 0.13264,-1.18051 0.3316,-1.18051c0.06632,0 0.11938,0.07958 0.13264,0.15917c0,0.11938 0.02653,0.11938 0.07958,-0.01326c0.06632,-0.14591 0.09285,-0.14591 0.1857,0c0.07958,0.13264 0.11938,0.03979 0.13264,-0.27855c0,-0.25202 0.03979,-0.38466 0.07958,-0.30508c0.02653,0.09285 0.11938,0.17243 0.1857,0.17243c0.07958,0 0.10611,-0.03979 0.07958,-0.10611c-0.02653,-0.05306 0.02653,-0.27855 0.11938,-0.49077l0.15917,-0.39792l0.31834,0.79585l0.15917,-0.39792c0.07958,-0.22549 0.23875,-0.41119 0.34487,-0.43772c0.10611,-0.02653 0.31834,-0.14591 0.45098,-0.26528c0.14591,-0.11938 0.21223,-0.14591 0.15917,-0.06632c-0.05306,0.09285 -0.03979,0.17243 0.03979,0.17243c0.07958,0 0.19896,-0.11938 0.27855,-0.25202c0.06632,-0.14591 0.25202,-0.30508 0.39792,-0.34487c0.14591,-0.03979 0.26528,-0.19896 0.26528,-0.34487c0,-0.13264 0.03979,-0.25202 0.10611,-0.25202c0.05306,0 0.09285,-0.23875 0.07958,-0.53057c0,-0.3714 0.03979,-0.5173 0.15917,-0.47751c0.17243,0.06632 0.14591,-0.92849 -0.03979,-1.71108c-0.05306,-0.22549 -0.09285,-0.42445 -0.10611,-0.46425c-0.02653,-0.22549 -0.5173,-0.78259 -0.61015,-0.71626c-0.06632,0.03979 -0.15917,-0.02653 -0.19896,-0.13264c-0.03979,-0.11938 -0.15917,-0.21223 -0.26528,-0.21223c-0.10611,0 -0.41119,-0.11938 -0.67647,-0.26528c-0.26528,-0.13264 -0.53057,-0.22549 -0.61015,-0.17243c-0.06632,0.03979 -0.17243,0 -0.22549,-0.09285c-0.07958,-0.11938 -0.17243,-0.11938 -0.3714,-0.01326c-0.3714,0.19896 -0.95502,0.1857 -0.96828,-0.02653c0,-0.07958 -0.02653,-0.09285 -0.06632,-0.02653c-0.02653,0.07958 -0.31834,0.13264 -0.64994,0.11938c-0.3316,-0.01326 -0.63668,0.03979 -0.67647,0.10611c-0.03979,0.06632 -0.15917,0.05306 -0.27855,-0.03979c-0.15917,-0.13264 -0.21223,-0.13264 -0.31834,0.02653c-0.06632,0.10611 -0.11938,0.11938 -0.11938,0.05306c0,-0.07958 -0.3714,-0.14591 -0.83564,-0.15917c-0.55709,-0.01326 -0.72953,0.01326 -0.55709,0.09285c0.23875,0.09285 0.21223,0.11938 -0.17243,0.21223c-0.25202,0.05306 -0.47751,0.17243 -0.5173,0.29181c-0.06632,0.14591 -0.11938,0.11938 -0.25202,-0.11938c-0.09285,-0.17243 -0.17243,-0.25202 -0.1857,-0.17243c0,0.09285 -0.09285,0.19896 -0.21223,0.23875c-0.10611,0.03979 -0.17243,0.02653 -0.13264,-0.03979c0.15917,-0.23875 -0.30508,-0.25202 -0.5173,-0.01326c-0.13264,0.14591 -0.29181,0.22549 -0.34487,0.1857c-0.06632,-0.03979 -0.07958,0.03979 -0.02653,0.15917c0.05306,0.15917 0.03979,0.19896 -0.06632,0.13264c-0.09285,-0.05306 -0.15917,-0.01326 -0.15917,0.10611c0,0.11938 -0.05306,0.21223 -0.11938,0.21223c-0.06632,0 -0.14591,0.11938 -0.1857,0.26528c-0.03979,0.17243 0,0.26528 0.11938,0.26528c0.10611,0 0.1857,0.05306 0.1857,0.13264c0,0.06632 -0.11938,0.13264 -0.26528,0.13264c-0.17243,0 -0.27855,0.11938 -0.3316,0.35813c-0.03979,0.21223 -0.13264,0.54383 -0.21223,0.76932c-0.07958,0.21223 -0.14591,0.47751 -0.15917,0.55709c0,0.09285 -0.05306,0.17243 -0.11938,0.17243c-0.05306,0 -0.10611,0.14591 -0.10611,0.3316c0,0.1857 -0.09285,0.47751 -0.19896,0.64994c-0.35813,0.53057 -0.99481,3.95272 -1.00808,5.37198c-0.02653,1.98962 -0.17243,3.85987 -0.30508,3.89966c-0.29181,0.06632 -0.34487,-0.82238 -0.13264,-2.32123c0.15917,-1.15398 0.1857,-1.7376 0.09285,-2.32123c-0.11938,-0.71626 -0.13264,-0.74279 -0.27855,-0.43772c-0.14591,0.30508 -0.15917,0.30508 -0.13264,-0.19896c0.01326,-0.29181 0.09285,-0.66321 0.1857,-0.82238c0.14591,-0.22549 0.14591,-0.47751 -0.01326,-1.41926c-0.1857,-1.19377 -0.22549,-1.31315 -0.62342,-1.75087c-0.17243,-0.1857 -0.25202,-0.5173 -0.27855,-1.08766c-0.01326,-0.43772 -0.06632,-0.84891 -0.11938,-0.8887c-0.03979,-0.05306 -0.02653,-0.27855 0.03979,-0.50404c0.06632,-0.23875 0.15917,-0.68974 0.1857,-1.02134c0.06632,-0.75606 0.11938,-0.95502 0.23875,-1.16725c0.06632,-0.09285 0.02653,-0.25202 -0.09285,-0.3714c-0.11938,-0.10611 -0.21223,-0.27855 -0.21223,-0.35813c0,-0.09285 0.06632,-0.05306 0.14591,0.06632c0.06632,0.13264 0.19896,0.23875 0.26528,0.23875c0.07958,0 0.09285,-0.07958 0.03979,-0.17243c-0.06632,-0.10611 -0.02653,-0.10611 0.11938,0.02653c0.19896,0.14591 0.22549,0.14591 0.22549,-0.02653c0,-0.10611 0.07958,-0.22549 0.17243,-0.26528c0.07958,-0.02653 0.11938,-0.10611 0.06632,-0.15917c-0.05306,-0.05306 -0.19896,-0.02653 -0.31834,0.07958c-0.19896,0.15917 -0.21223,0.15917 -0.13264,-0.10611c0.10611,-0.34487 -0.10611,-0.50404 -0.41119,-0.30508c-0.22549,0.14591 -0.22549,0.14591 0,0.07958c0.15917,-0.05306 0.22549,-0.02653 0.19896,0.07958c-0.03979,0.09285 -0.15917,0.1857 -0.27855,0.21223c-0.55709,0.10611 0.14591,-2.109 0.8887,-2.78547c0.13264,-0.13264 0.21223,-0.23875 0.15917,-0.23875c-0.05306,0 0.06632,-0.15917 0.25202,-0.34487c0.21223,-0.21223 0.30508,-0.38466 0.21223,-0.43772c-0.14591,-0.09285 0.01326,-0.43772 0.19896,-0.43772c0.06632,0 0.10611,-0.05306 0.09285,-0.11938c-0.02653,-0.05306 0.05306,-0.07958 0.17243,-0.02653c0.10611,0.03979 0.35813,-0.03979 0.55709,-0.1857c0.43772,-0.31834 1.0744,-0.5173 1.72434,-0.55709c0.21223,-0.01326 0.29181,-0.09285 0.29181,-0.3316c0,-0.46425 0.13264,-0.74279 0.35813,-0.74279c0.11938,0 0.17243,0.07958 0.11938,0.19896c-0.05306,0.15917 -0.02653,0.17243 0.1857,0.02653c0.30508,-0.1857 0.35813,-0.42445 0.07958,-0.31834c-0.10611,0.03979 -0.22549,-0.01326 -0.26528,-0.11938c-0.03979,-0.11938 0.01326,-0.1857 0.15917,-0.1857c0.11938,0 0.30508,-0.11938 0.39792,-0.27855c0.14591,-0.22549 0.26528,-0.26528 0.62342,-0.19896c0.27855,0.05306 0.47751,0.02653 0.54383,-0.06632c0.06632,-0.10611 0.03979,-0.11938 -0.07958,-0.05306c-0.11938,0.06632 -0.14591,0.05306 -0.07958,-0.05306c0.05306,-0.07958 0.14591,-0.11938 0.21223,-0.07958c0.05306,0.02653 0.27855,0 0.50404,-0.07958c0.30508,-0.10611 0.50404,-0.09285 0.87543,0.06632c0.58362,0.23875 1.36621,0.14591 1.55191,-0.19896c0.06632,-0.13264 0.31834,-0.30508 0.55709,-0.3714c0.80911,-0.25202 2.95791,0.05306 3.43542,0.47751zM37.5825,4.99766c-0.03979,0.06632 -0.01326,0.15917 0.06632,0.21223c0.06632,0.03979 0.13264,-0.01326 0.13264,-0.11938c0,-0.23875 -0.07958,-0.27855 -0.19896,-0.09285zM39.90372,12.55823c0,0.07958 0.05306,0.17243 0.13264,0.21223c0.07958,0.03979 0.09285,-0.01326 0.05306,-0.11938c-0.09285,-0.23875 -0.1857,-0.27855 -0.1857,-0.09285zM27.20993,16.21913c-0.57036,0.25202 -0.55709,0.3316 0.03979,0.19896c0.26528,-0.06632 0.8887,-0.06632 1.37947,-0.01326c0.68974,0.06632 0.8887,0.05306 0.83564,-0.06632c-0.03979,-0.09285 -0.15917,-0.13264 -0.26528,-0.09285c-0.14591,0.05306 -0.1857,0.02653 -0.11938,-0.06632c0.13264,-0.22549 -1.33968,-0.19896 -1.87025,0.03979zM27.24972,16.65685c-0.03979,0.06632 0.3316,0.11938 0.82238,0.11938c0.61015,0 0.78259,-0.02653 0.55709,-0.09285c-0.46425,-0.14591 -1.29989,-0.15917 -1.37947,-0.02653zM27.91293,16.94866c-0.02653,0 -0.11938,0.09285 -0.21223,0.19896c-0.13264,0.15917 -0.13264,0.19896 0.05306,0.19896c0.11938,0 0.21223,-0.09285 0.21223,-0.19896c0,-0.10611 -0.02653,-0.19896 -0.05306,-0.19896zM28.36391,17.32006c0,0.41119 -0.29181,0.55709 -1.18051,0.57036c-0.49077,0.01326 -0.76932,0.03979 -0.63668,0.07958c0.14591,0.03979 0.21223,0.14591 0.17243,0.25202c-0.03979,0.09285 0.01326,0.34487 0.11938,0.54383c0.11938,0.21223 0.14591,0.41119 0.06632,0.50404c-0.21223,0.25202 -0.11938,1.55191 0.13264,2.05594c0.13264,0.26528 0.23875,0.74279 0.23875,1.06113c0,0.41119 0.13264,0.86217 0.41119,1.43253c0.39792,0.78259 0.41119,0.86217 0.22549,1.15398c-0.17243,0.26528 -0.17243,0.31834 -0.01326,0.38466c0.53057,0.19896 0.72953,-0.1857 0.53057,-1.02134c-0.06632,-0.22549 -0.03979,-0.35813 0.05306,-0.35813c0.07958,0 0.14591,0.10611 0.14591,0.22549c0.01326,0.15917 0.07958,0.10611 0.22549,-0.15917c0.11938,-0.22549 0.29181,-0.45098 0.38466,-0.50404c0.10611,-0.05306 0.1857,-0.25202 0.1857,-0.42445c0,-0.1857 0.06632,-0.3316 0.13264,-0.3316c0.07958,0 0.13264,-0.09285 0.13264,-0.19896c0,-0.27855 0.23875,-0.25202 0.30508,0.02653c0.03979,0.15917 0.06632,0.13264 0.07958,-0.09285c0,-0.1857 0.13264,-0.43772 0.27855,-0.57036c0.30508,-0.25202 0.34487,-0.57036 0.10611,-0.66321c-0.10611,-0.05306 -0.05306,-0.10611 0.13264,-0.17243c0.19896,-0.05306 0.3316,-0.22549 0.38466,-0.47751c0.05306,-0.30508 0.13264,-0.3714 0.31834,-0.3316c0.3316,0.09285 0.3316,-0.25202 0,-0.43772c-0.34487,-0.1857 -0.41119,-0.17243 -0.41119,0.07958c0,0.15917 -0.05306,0.1857 -0.15917,0.09285c-0.1857,-0.14591 -0.84891,-0.3316 -0.98155,-0.27855c-0.05306,0.02653 -0.13264,-0.07958 -0.1857,-0.23875c-0.07958,-0.21223 -0.30508,-0.31834 -0.91523,-0.45098c-0.703,-0.14591 -0.78259,-0.1857 -0.58362,-0.3316c0.13264,-0.09285 0.27855,-0.14591 0.3316,-0.11938c0.05306,0.02653 0.11938,0 0.17243,-0.07958c0.03979,-0.06632 -0.01326,-0.13264 -0.11938,-0.13264c-0.11938,0 -0.21223,-0.09285 -0.21223,-0.21223c0,-0.1857 0.03979,-0.1857 0.19896,-0.05306c0.13264,0.11938 0.19896,0.11938 0.19896,0.01326c0,-0.07958 0.14591,-0.14591 0.3316,-0.14591c0.1857,0 0.3316,-0.05306 0.3316,-0.11938c0,-0.06632 0.02653,-0.19896 0.06632,-0.30508c0.03979,-0.09285 -0.07958,-0.23875 -0.29181,-0.34487c-0.49077,-0.22549 -0.703,-0.19896 -0.703,0.07958zM26.90485,17.54555c-0.14591,0.17243 -0.13264,0.1857 0.05306,0.11938c0.11938,-0.03979 0.21223,-0.13264 0.21223,-0.19896c0,-0.17243 -0.07958,-0.14591 -0.26528,0.07958zM25.49885,21.79008c-0.25202,0.1857 -0.23875,0.1857 0.05306,0.19896c0.17243,0 0.29181,-0.07958 0.29181,-0.19896c0,-0.25202 -0.01326,-0.25202 -0.34487,0zM27.83334,25.70301c-0.11938,0.07958 -0.13264,0.13264 -0.03979,0.13264c0.07958,0 0.19896,-0.06632 0.23875,-0.13264c0.10611,-0.15917 0.05306,-0.15917 -0.19896,0zM28.04557,26.32642c-0.10611,0.39792 0,1.11419 0.1857,1.23357c0.13264,0.07958 0.11938,0.11938 -0.01326,0.17243c-0.10611,0.03979 -0.11938,0.07958 -0.05306,0.07958c0.31834,0.02653 0.5173,-0.26528 0.54383,-0.83564c0.02653,-0.47751 -0.01326,-0.63668 -0.21223,-0.74279c-0.3316,-0.17243 -0.3714,-0.17243 -0.45098,0.09285zM17.10264,28.09055c-0.29181,-0.54383 -0.54383,-0.94176 -0.54383,-0.8887c0,0.1857 0.75606,1.61823 1.00808,1.89677c0.14591,0.14591 0.21223,0.19896 0.15917,0.11938c-0.03979,-0.06632 -0.31834,-0.58362 -0.62342,-1.12745zM20.47173,32.42793c-0.83564,-0.83564 -1.52538,-1.44579 -1.52538,-1.36621c0,0.5173 1.79066,3.58132 2.00289,3.44868c0.06632,-0.03979 0.11938,-0.02653 0.10611,0.03979c-0.03979,0.26528 0.02653,0.45098 0.14591,0.3714c0.06632,-0.03979 0.09285,0 0.05306,0.11938c-0.05306,0.13264 0.05306,0.21223 0.3316,0.27855c0.23875,0.05306 0.3714,0.14591 0.3316,0.22549c-0.05306,0.07958 0.01326,0.10611 0.19896,0.03979c0.21223,-0.06632 0.27855,-0.02653 0.27855,0.14591c0,0.17243 0.03979,0.19896 0.14591,0.09285c0.10611,-0.10611 0.07958,-0.25202 -0.06632,-0.54383c-0.11938,-0.22549 -0.21223,-0.53057 -0.21223,-0.68974c0,-0.15917 -0.09285,-0.26528 -0.21223,-0.26528c-0.13264,0 -0.1857,-0.06632 -0.13264,-0.19896c0.05306,-0.13264 -0.42445,-0.703 -1.44579,-1.69781zM15.35177,31.96369c0.02653,0.15917 -0.17243,0.13264 -0.34487,-0.03979c-0.07958,-0.07958 -0.21223,-0.13264 -0.30508,-0.09285c-0.07958,0.02653 0.09285,0.17243 0.38466,0.3316c0.58362,0.30508 0.62342,0.30508 0.41119,-0.10611c-0.07958,-0.13264 -0.10611,-0.25202 -0.07958,-0.25202c0.03979,0 0.17243,0.1857 0.27855,0.41119c0.17243,0.31834 0.25202,0.3714 0.39792,0.25202c0.14591,-0.11938 0.21223,-0.07958 0.3316,0.15917c0.13264,0.26528 0.11938,0.27855 -0.03979,0.07958c-0.17243,-0.21223 -0.19896,-0.21223 -0.39792,0c-0.15917,0.15917 -0.22549,0.17243 -0.22549,0.03979c0,-0.10611 -0.09285,-0.14591 -0.26528,-0.10611c-0.13264,0.03979 -0.27855,0.01326 -0.31834,-0.05306c-0.02653,-0.06632 -0.03979,-0.05306 -0.02653,0.03979c0.02653,0.09285 0.13264,0.15917 0.23875,0.13264c0.10611,-0.01326 0.26528,0.11938 0.34487,0.30508c0.14591,0.31834 0.13264,0.3316 -0.09285,0.19896c-0.25202,-0.11938 -0.25202,-0.10611 -0.05306,0.26528c0.1857,0.39792 0.55709,0.54383 0.58362,0.22549c0,-0.07958 0.06632,-0.02653 0.14591,0.13264c0.07958,0.17243 0.22549,0.30508 0.31834,0.30508c0.09285,0 0.26528,0.13264 0.3714,0.29181c0.11938,0.15917 0.21223,0.23875 0.21223,0.15917c0,-0.07958 -0.03979,-0.1857 -0.09285,-0.23875c-0.05306,-0.03979 -0.09285,-0.19896 -0.10611,-0.34487c-0.01326,-0.19896 0.01326,-0.22549 0.15917,-0.11938c0.10611,0.09285 0.17243,0.10611 0.17243,0.01326c0,-0.15917 -0.3316,-0.45098 -0.42445,-0.35813c-0.02653,0.03979 -0.06632,-0.02653 -0.06632,-0.13264c0,-0.10611 0.03979,-0.15917 0.09285,-0.13264c0.05306,0.03979 0.09285,-0.05306 0.07958,-0.1857c-0.01326,-0.31834 -0.90196,-1.31315 -1.10093,-1.24683c-0.07958,0.02653 -0.1857,-0.01326 -0.23875,-0.07958c-0.15917,-0.26528 -0.39792,-0.15917 -0.34487,0.14591zM6.95556,33.58192c-0.3316,-0.13264 -0.25202,0.19896 0.09285,0.35813c0.23875,0.10611 0.42445,0.09285 0.76932,-0.05306l0.45098,-0.19896l-0.55709,-0.01326c-0.30508,-0.01326 -0.63668,-0.05306 -0.75606,-0.09285zM15.73643,34.05943c-0.05306,0 -0.10611,0.05306 -0.10611,0.11938c0,0.07958 0.05306,0.15917 0.10611,0.19896c0.06632,0.03979 0.11938,-0.01326 0.11938,-0.11938c0,-0.10611 -0.05306,-0.19896 -0.11938,-0.19896zM16.0813,34.05943c-0.02653,0 -0.05306,0.05306 -0.05306,0.13264c0,0.06632 0.06632,0.13264 0.14591,0.13264c0.06632,0 0.09285,-0.06632 0.05306,-0.13264c-0.03979,-0.07958 -0.10611,-0.13264 -0.14591,-0.13264zM17.1159,35.12056c-0.03979,0 0.03979,0.11938 0.17243,0.26528c0.13264,0.14591 0.26528,0.26528 0.30508,0.26528c0.03979,0 -0.03979,-0.11938 -0.17243,-0.26528c-0.13264,-0.14591 -0.26528,-0.26528 -0.30508,-0.26528zM23.85409,35.2532c-0.06632,0 -0.13264,0.06632 -0.13264,0.14591c0,0.06632 0.06632,0.09285 0.13264,0.05306c0.07958,-0.03979 0.13264,-0.10611 0.13264,-0.14591c0,-0.02653 -0.05306,-0.05306 -0.13264,-0.05306zM23.01845,35.61133c-0.03979,-0.07958 -0.06632,-0.01326 -0.06632,0.17243c0,0.1857 0.02653,0.25202 0.06632,0.15917c0.02653,-0.07958 0.02653,-0.23875 0,-0.3316zM17.92502,35.78377c-0.10611,0 -0.17243,0.78259 -0.06632,0.84891c0.05306,0.02653 0.09285,-0.14591 0.09285,-0.39792c0,-0.25202 -0.01326,-0.45098 -0.02653,-0.45098zM23.40311,35.78377c-0.03979,0 -0.10611,0.05306 -0.14591,0.13264c-0.03979,0.06632 -0.01326,0.13264 0.05306,0.13264c0.07958,0 0.14591,-0.06632 0.14591,-0.13264c0,-0.07958 -0.02653,-0.13264 -0.05306,-0.13264zM10.74911,40.0283c-0.05306,0 -0.10611,0.11938 -0.10611,0.25202c0,0.14591 0.05306,0.22549 0.10611,0.19896c0.05306,-0.03979 0.10611,-0.15917 0.10611,-0.26528c0,-0.10611 -0.05306,-0.1857 -0.10611,-0.1857zM24.22549,40.18747c-0.1857,-0.11938 -0.11938,0 0.15917,0.27855c0.26528,0.25202 0.54383,0.42445 0.64994,0.38466c0.13264,-0.05306 0.17243,-0.01326 0.10611,0.13264c-0.07958,0.23875 0.17243,0.39792 0.39792,0.26528c0.07958,-0.05306 0.1857,-0.23875 0.23875,-0.42445c0.07958,-0.26528 0.06632,-0.30508 -0.07958,-0.17243c-0.23875,0.23875 -0.3714,0.21223 -0.31834,-0.06632c0.01326,-0.11938 0,-0.14591 -0.02653,-0.06632c-0.06632,0.21223 -0.38466,0.22549 -0.50404,0.03979c-0.05306,-0.07958 -0.14591,-0.10611 -0.21223,-0.06632c-0.06632,0.05306 -0.11938,0.02653 -0.11938,-0.02653c0,-0.06632 -0.13264,-0.1857 -0.29181,-0.27855zM15.15281,42.29647c-0.14591,0 -0.1857,0.03979 -0.07958,0.07958c0.09285,0.03979 0.21223,0.02653 0.25202,-0.01326c0.05306,-0.03979 -0.02653,-0.07958 -0.17243,-0.06632zM16.04151,42.2832c-0.07958,0 -0.14591,0.14591 -0.14591,0.3316c0,0.22549 0.06632,0.3316 0.23875,0.3316c0.15917,0 0.1857,-0.02653 0.05306,-0.10611c-0.09285,-0.06632 -0.13264,-0.21223 -0.07958,-0.3316c0.03979,-0.13264 0.01326,-0.22549 -0.06632,-0.22549zM14.29064,42.70766c-0.07958,0.15917 -0.05306,0.63668 0.02653,0.63668c0.06632,0 0.11938,-0.14591 0.11938,-0.3316c0,-0.27855 -0.07958,-0.43772 -0.14591,-0.30508zM16.20068,32.94524c0.13264,0.03979 0.19896,0.11938 0.15917,0.15917c-0.03979,0.03979 -0.14591,0 -0.23875,-0.09285c-0.11938,-0.13264 -0.10611,-0.14591 0.07958,-0.06632zM16.75777,33.92678c0.21223,0.22549 0.21223,0.26528 0.03979,0.19896c-0.11938,-0.05306 -0.25202,-0.17243 -0.29181,-0.27855c-0.09285,-0.25202 -0.02653,-0.23875 0.25202,0.07958zM14.76815,9.38809c0.07958,0 0.03979,0.06632 -0.06632,0.13264c-0.10611,0.06632 -0.25202,0.13264 -0.3316,0.13264c-0.06632,0 -0.03979,-0.06632 0.06632,-0.13264c0.10611,-0.06632 0.26528,-0.13264 0.3316,-0.13264zM19.4106,13.49998c0.05306,0.07958 0.41119,0.13264 0.79585,0.11938c0.39792,-0.01326 0.68974,-0.07958 0.64994,-0.13264c-0.03979,-0.06632 0.02653,-0.07958 0.13264,-0.03979c0.25202,0.09285 0.27855,0.31834 0.05306,0.31834c-0.09285,0 0,0.09285 0.21223,0.19896c0.41119,0.22549 0.66321,0.26528 0.34487,0.06632c-0.14591,-0.09285 -0.15917,-0.15917 -0.05306,-0.26528c0.11938,-0.11938 0.21223,-0.07958 0.3714,0.14591c0.11938,0.17243 0.21223,0.25202 0.22549,0.1857c0,-0.07958 0.05306,0 0.11938,0.15917c0.06632,0.17243 0.21223,0.30508 0.3316,0.30508c0.10611,0 0.19896,0.05306 0.19896,0.10611c0,0.23875 0.63668,0.84891 0.78259,0.76932c0.21223,-0.13264 0.1857,-0.01326 -0.13264,0.62342c-0.15917,0.30508 -0.39792,0.63668 -0.53057,0.72953c-0.14591,0.09285 -0.25202,0.29181 -0.25202,0.45098c0,0.19896 -0.06632,0.25202 -0.26528,0.19896c-0.14591,-0.03979 -0.26528,-0.01326 -0.26528,0.03979c0,0.06632 0.10611,0.13264 0.23875,0.15917c0.38466,0.07958 -1.28662,0.63668 -1.87025,0.62342c-0.30508,0 -0.46425,-0.03979 -0.35813,-0.07958c0.10611,-0.02653 0.29181,-0.09285 0.39792,-0.13264c0.10611,-0.05306 0.26528,-0.06632 0.34487,-0.06632c0.07958,0.01326 0.14591,-0.06632 0.14591,-0.17243c0,-0.11938 -0.07958,-0.1857 -0.17243,-0.14591c-0.10611,0.03979 -0.21223,0.01326 -0.25202,-0.05306c-0.05306,-0.07958 -0.01326,-0.13264 0.06632,-0.13264c0.07958,0 0.10611,-0.06632 0.06632,-0.14591c-0.05306,-0.07958 0.02653,-0.17243 0.1857,-0.21223c0.3714,-0.09285 0.34487,-0.22549 -0.05306,-0.41119c-0.46425,-0.21223 -0.57036,-0.19896 -0.66321,0.10611c-0.10611,0.34487 -0.66321,0.49077 -0.95502,0.25202c-0.1857,-0.15917 -0.19896,-0.14591 -0.10611,0.11938c0.07958,0.27855 0.06632,0.30508 -0.15917,0.1857c-0.13264,-0.06632 -0.31834,-0.09285 -0.41119,-0.06632c-0.10611,0.03979 -0.27855,-0.03979 -0.41119,-0.1857c-0.22549,-0.23875 -0.22549,-0.26528 0.01326,-0.703c0.13264,-0.25202 0.23875,-0.41119 0.23875,-0.34487c0,0.06632 0.11938,0.01326 0.27855,-0.13264c0.29181,-0.26528 0.92849,-0.31834 1.93657,-0.14591c0.49077,0.07958 0.54383,0.06632 0.47751,-0.15917c-0.06632,-0.29181 -0.47751,-0.49077 -1.32642,-0.68974c-0.76932,-0.15917 -1.31315,-0.05306 -1.406,0.29181c-0.05306,0.17243 -0.14591,0.22549 -0.31834,0.17243c-0.17243,-0.05306 -0.19896,-0.03979 -0.05306,0.05306c0.13264,0.10611 0.14591,0.1857 0.01326,0.42445c-0.13264,0.23875 -0.1857,0.26528 -0.27855,0.11938c-0.13264,-0.22549 -0.03979,-1.04787 0.13264,-1.2203c0.06632,-0.06632 0.10611,-0.19896 0.07958,-0.27855c-0.02653,-0.07958 0.22549,-0.3714 0.57036,-0.63668c0.68974,-0.53057 0.76932,-0.57036 0.8887,-0.3714zM18.98615,16.03344c-0.11938,0.15917 0.01326,0.1857 0.82238,0.1857c0.54383,0 0.92849,-0.05306 0.87543,-0.10611c-0.21223,-0.21223 -1.53864,-0.26528 -1.69781,-0.07958zM19.60956,16.55074c-0.17243,0.10611 -0.17243,0.13264 0.02653,0.13264c0.11938,0 0.26528,-0.06632 0.30508,-0.13264c0.10611,-0.17243 -0.06632,-0.17243 -0.3316,0zM22.51441,21.65744c-0.07958,0.05306 -0.21223,0.02653 -0.29181,-0.05306c-0.1857,-0.1857 -0.58362,-0.1857 -0.68974,-0.01326c-0.03979,0.07958 0.05306,0.1857 0.22549,0.25202c0.21223,0.09285 0.23875,0.13264 0.07958,0.13264c-0.21223,0.01326 -0.63668,-0.45098 -0.63668,-0.68974c0,-0.05306 0.13264,-0.14591 0.30508,-0.21223c0.45098,-0.17243 1.37947,0.35813 1.00808,0.58362zM23.297,23.2624c-0.03979,0.55709 -0.07958,0.58362 -0.47751,0.43772l-0.31834,-0.11938l0.31834,-0.38466c0.41119,-0.5173 0.5173,-0.50404 0.47751,0.06632zM15.86907,23.46136c0.01326,-0.01326 0.02653,0.07958 0.02653,0.1857c0,0.10611 -0.09285,0.19896 -0.19896,0.19896c-0.23875,0 -0.26528,-0.21223 -0.02653,-0.30508c0.07958,-0.03979 0.17243,-0.07958 0.19896,-0.07958zM5.35059,38.70188c0.05306,0 0.1857,0.10611 0.29181,0.22549c0.21223,0.27855 0.5173,0.82238 0.35813,0.63668c-0.06632,-0.07958 -0.26528,-0.29181 -0.43772,-0.50404c-0.1857,-0.19896 -0.27855,-0.35813 -0.21223,-0.35813z" fill="none" stroke-width="0"></path><g fill="#000000" stroke-width="1"><g><path d="M25.2203,-0.6794c-0.23875,0.06632 -0.49077,0.23875 -0.55709,0.3714c-0.1857,0.34487 -0.96828,0.43772 -1.55191,0.19896c-0.3714,-0.15917 -0.57036,-0.17243 -0.87543,-0.06632c-0.22549,0.07958 -0.45098,0.10611 -0.50404,0.07958c-0.06632,-0.03979 -0.15917,0 -0.21223,0.07958c-0.06632,0.10611 -0.03979,0.11938 0.07958,0.05306c0.11938,-0.06632 0.14591,-0.05306 0.07958,0.05306c-0.06632,0.09285 -0.26528,0.11938 -0.54383,0.06632c-0.35813,-0.06632 -0.47751,-0.02653 -0.62342,0.19896c-0.09285,0.15917 -0.27855,0.27855 -0.39792,0.27855c-0.14591,0 -0.19896,0.06632 -0.15917,0.1857c0.03979,0.10611 0.15917,0.15917 0.26528,0.11938c0.27855,-0.10611 0.22549,0.13264 -0.07958,0.31834c-0.21223,0.14591 -0.23875,0.13264 -0.1857,-0.02653c0.05306,-0.11938 0,-0.19896 -0.11938,-0.19896c-0.22549,0 -0.35813,0.27855 -0.35813,0.74279c0,0.23875 -0.07958,0.31834 -0.29181,0.3316c-0.64994,0.03979 -1.28662,0.23875 -1.72434,0.55709c-0.19896,0.14591 -0.45098,0.22549 -0.55709,0.1857c-0.11938,-0.05306 -0.19896,-0.02653 -0.17243,0.02653c0.01326,0.06632 -0.02653,0.11938 -0.09285,0.11938c-0.1857,0 -0.34487,0.34487 -0.19896,0.43772c0.09285,0.05306 0,0.22549 -0.21223,0.43772c-0.1857,0.1857 -0.30508,0.34487 -0.25202,0.34487c0.05306,0 -0.02653,0.10611 -0.15917,0.23875c-0.74279,0.67647 -1.44579,2.89159 -0.8887,2.78547c0.11938,-0.02653 0.23875,-0.11938 0.27855,-0.21223c0.02653,-0.10611 -0.03979,-0.13264 -0.19896,-0.07958c-0.22549,0.06632 -0.22549,0.06632 0,-0.07958c0.30508,-0.19896 0.5173,-0.03979 0.41119,0.30508c-0.07958,0.26528 -0.06632,0.26528 0.13264,0.10611c0.11938,-0.10611 0.26528,-0.13264 0.31834,-0.07958c0.05306,0.05306 0.01326,0.13264 -0.06632,0.15917c-0.09285,0.03979 -0.17243,0.15917 -0.17243,0.26528c0,0.17243 -0.02653,0.17243 -0.22549,0.02653c-0.14591,-0.13264 -0.1857,-0.13264 -0.11938,-0.02653c0.05306,0.09285 0.03979,0.17243 -0.03979,0.17243c-0.06632,0 -0.19896,-0.10611 -0.26528,-0.23875c-0.07958,-0.11938 -0.14591,-0.15917 -0.14591,-0.06632c0,0.07958 0.09285,0.25202 0.21223,0.35813c0.11938,0.11938 0.15917,0.27855 0.09285,0.3714c-0.11938,0.21223 -0.17243,0.41119 -0.23875,1.16725c-0.02653,0.3316 -0.11938,0.78259 -0.1857,1.02134c-0.06632,0.22549 -0.07958,0.45098 -0.03979,0.50404c0.05306,0.03979 0.10611,0.45098 0.11938,0.8887c0.02653,0.57036 0.10611,0.90196 0.27855,1.08766c0.39792,0.43772 0.43772,0.55709 0.62342,1.75087c0.15917,0.94176 0.15917,1.19377 0.01326,1.41926c-0.09285,0.15917 -0.17243,0.53057 -0.1857,0.82238c-0.02653,0.50404 -0.01326,0.50404 0.13264,0.19896c0.14591,-0.30508 0.15917,-0.27855 0.27855,0.43772c0.09285,0.58362 0.06632,1.16725 -0.09285,2.32123c-0.21223,1.49885 -0.15917,2.38755 0.13264,2.32123c0.13264,-0.03979 0.27855,-1.91004 0.30508,-3.89966c0.01326,-1.41926 0.64994,-4.84142 1.00808,-5.37198c0.10611,-0.17243 0.19896,-0.46425 0.19896,-0.64994c0,-0.1857 0.05306,-0.3316 0.10611,-0.3316c0.06632,0 0.11938,-0.07958 0.11938,-0.17243c0.01326,-0.07958 0.07958,-0.34487 0.15917,-0.55709c0.07958,-0.22549 0.17243,-0.55709 0.21223,-0.76932c0.05306,-0.23875 0.15917,-0.35813 0.3316,-0.35813c0.14591,0 0.26528,-0.06632 0.26528,-0.13264c0,-0.07958 -0.07958,-0.13264 -0.1857,-0.13264c-0.11938,0 -0.15917,-0.09285 -0.11938,-0.26528c0.03979,-0.14591 0.11938,-0.26528 0.1857,-0.26528c0.06632,0 0.11938,-0.09285 0.11938,-0.21223c0,-0.11938 0.06632,-0.15917 0.15917,-0.10611c0.10611,0.06632 0.11938,0.02653 0.06632,-0.13264c-0.05306,-0.11938 -0.03979,-0.19896 0.02653,-0.15917c0.05306,0.03979 0.21223,-0.03979 0.34487,-0.1857c0.21223,-0.23875 0.67647,-0.22549 0.5173,0.01326c-0.03979,0.06632 0.02653,0.07958 0.13264,0.03979c0.11938,-0.03979 0.21223,-0.14591 0.21223,-0.23875c0.01326,-0.07958 0.09285,0 0.1857,0.17243c0.13264,0.23875 0.1857,0.26528 0.25202,0.11938c0.03979,-0.11938 0.26528,-0.23875 0.5173,-0.29181c0.38466,-0.09285 0.41119,-0.11938 0.17243,-0.21223c-0.17243,-0.07958 0,-0.10611 0.55709,-0.09285c0.46425,0.01326 0.83564,0.07958 0.83564,0.15917c0,0.06632 0.05306,0.05306 0.11938,-0.05306c0.10611,-0.15917 0.15917,-0.15917 0.31834,-0.02653c0.11938,0.09285 0.23875,0.10611 0.27855,0.03979c0.03979,-0.06632 0.34487,-0.11938 0.67647,-0.10611c0.3316,0.01326 0.62342,-0.03979 0.64994,-0.11938c0.03979,-0.06632 0.06632,-0.05306 0.06632,0.02653c0.01326,0.21223 0.59689,0.22549 0.96828,0.02653c0.19896,-0.10611 0.29181,-0.10611 0.3714,0.01326c0.05306,0.09285 0.15917,0.13264 0.22549,0.09285c0.07958,-0.05306 0.34487,0.03979 0.61015,0.17243c0.26528,0.14591 0.57036,0.26528 0.67647,0.26528c0.10611,0 0.22549,0.09285 0.26528,0.21223c0.03979,0.10611 0.13264,0.17243 0.19896,0.13264c0.09285,-0.06632 0.58362,0.49077 0.61015,0.71626c0.01326,0.03979 0.05306,0.23875 0.10611,0.46425c0.1857,0.78259 0.21223,1.7774 0.03979,1.71108c-0.11938,-0.03979 -0.15917,0.10611 -0.15917,0.47751c0.01326,0.29181 -0.02653,0.53057 -0.07958,0.53057c-0.06632,0 -0.10611,0.11938 -0.10611,0.25202c0,0.14591 -0.11938,0.30508 -0.26528,0.34487c-0.14591,0.03979 -0.3316,0.19896 -0.39792,0.34487c-0.07958,0.13264 -0.19896,0.25202 -0.27855,0.25202c-0.07958,0 -0.09285,-0.07958 -0.03979,-0.17243c0.05306,-0.07958 -0.01326,-0.05306 -0.15917,0.06632c-0.13264,0.11938 -0.34487,0.23875 -0.45098,0.26528c-0.10611,0.02653 -0.26528,0.21223 -0.34487,0.43772l-0.15917,0.39792l-0.15917,-0.39792l-0.15917,-0.39792l-0.15917,0.39792c-0.09285,0.21223 -0.14591,0.43772 -0.11938,0.49077c0.02653,0.06632 0,0.10611 -0.07958,0.10611c-0.06632,0 -0.15917,-0.07958 -0.1857,-0.17243c-0.03979,-0.07958 -0.07958,0.05306 -0.07958,0.30508c-0.01326,0.31834 -0.05306,0.41119 -0.13264,0.27855c-0.09285,-0.14591 -0.11938,-0.14591 -0.1857,0c-0.05306,0.13264 -0.07958,0.13264 -0.07958,0.01326c-0.01326,-0.07958 -0.06632,-0.15917 -0.13264,-0.15917c-0.19896,0 -0.41119,0.78259 -0.3316,1.18051c0.03979,0.19896 -0.02653,0.75606 -0.14591,1.2203c-0.30508,1.16725 -0.35813,1.39274 -0.42445,2.2947c-0.03979,0.42445 -0.11938,0.84891 -0.1857,0.92849c-0.06632,0.07958 -0.21223,0.26528 -0.30508,0.41119c-0.15917,0.21223 -0.21223,0.22549 -0.39792,0.07958c-0.31834,-0.26528 -0.39792,-0.09285 -0.17243,0.41119c0.10611,0.23875 0.23875,0.53057 0.26528,0.63668c0.05306,0.11938 0.07958,0.09285 0.07958,-0.10611c0.01326,-0.21223 0.09285,-0.29181 0.3316,-0.29181c0.38466,0 0.8887,0.76932 0.78259,1.18051c-0.05306,0.1857 0.02653,0.35813 0.23875,0.54383l0.31834,0.25202l-0.55709,0.01326c-0.59689,0 -1.27336,0.23875 -1.16725,0.39792c0.05306,0.07958 -0.74279,0.09285 -1.61823,0.01326c-0.26528,-0.02653 -0.19896,-0.25202 0.10611,-0.34487c0.14591,-0.05306 0.23875,-0.11938 0.21223,-0.15917c-0.10611,-0.09285 -0.64994,0.22549 -1.08766,0.63668c-0.38466,0.35813 -0.43772,0.3714 -0.86217,0.21223c-0.25202,-0.07958 -0.50404,-0.21223 -0.54383,-0.26528c-0.13264,-0.17243 -0.62342,0.703 -0.55709,0.98155c0.09285,0.34487 0.27855,0.43772 0.49077,0.26528c0.09285,-0.07958 0.19896,-0.11938 0.23875,-0.07958c0.03979,0.03979 0.14591,-0.01326 0.23875,-0.13264c0.09285,-0.10611 0.30508,-0.19896 0.47751,-0.19896c0.15917,0 0.3316,-0.05306 0.3714,-0.11938c0.11938,-0.1857 1.12745,-0.25202 1.94983,-0.13264c0.41119,0.06632 0.91523,0.13264 1.12745,0.13264c0.5173,0.02653 1.24683,0.27855 1.24683,0.42445c0,0.06632 -0.13264,0.22549 -0.29181,0.35813l-0.30508,0.25202l0.31834,0.11938l0.3316,0.11938l-0.3316,0.06632c-0.17243,0.05306 -0.92849,0.03979 -1.65802,0c-1.37947,-0.09285 -1.63149,-0.02653 -1.53864,0.39792c0.05306,0.25202 1.06113,0.53057 1.28662,0.35813c0.07958,-0.05306 0.26528,-0.07958 0.39792,-0.05306c0.14591,0.02653 0.38466,0.05306 0.53057,0.05306c0.22549,0.01326 0.22549,0.03979 0.06632,0.14591c-0.17243,0.10611 -0.15917,0.13264 0.03979,0.13264c0.13264,0 0.19896,0.05306 0.15917,0.13264c-0.03979,0.06632 0.02653,0.13264 0.15917,0.13264c0.15917,0 0.1857,0.03979 0.07958,0.10611c-0.1857,0.11938 0.03979,0.46425 0.39792,0.59689c0.11938,0.03979 0.22549,0.14591 0.22549,0.22549c0,0.07958 -0.06632,0.10611 -0.14591,0.05306c-0.09285,-0.05306 -0.11938,0 -0.06632,0.1857c0.06632,0.1857 0.01326,0.35813 -0.15917,0.53057c-0.14591,0.14591 -0.29181,0.34487 -0.3316,0.43772c-0.05306,0.13264 -0.07958,0.11938 -0.07958,-0.05306c-0.01326,-0.1857 -0.06632,-0.21223 -0.23875,-0.11938c-0.22549,0.11938 -0.83564,-0.01326 -0.83564,-0.17243c0,-0.05306 0.06632,-0.03979 0.15917,0.01326c0.09285,0.05306 0.10611,0.03979 0.05306,-0.05306c-0.06632,-0.11938 -0.22549,-0.09285 -0.58362,0.06632c-0.45098,0.19896 -0.79585,0.22549 -1.93657,0.1857c-0.25202,-0.01326 -0.55709,-0.19896 -0.98155,-0.61015c-0.3316,-0.3316 -0.66321,-0.59689 -0.72953,-0.59689c-0.07958,0 -0.09285,-0.03979 -0.05306,-0.09285c0.05306,-0.03979 -0.03979,-0.17243 -0.21223,-0.29181c-0.15917,-0.11938 -0.30508,-0.17243 -0.31834,-0.14591c-0.02653,0.03979 -0.13264,-0.06632 -0.25202,-0.23875c-0.11938,-0.17243 -0.29181,-0.27855 -0.39792,-0.23875c-0.10611,0.03979 -0.14591,0 -0.09285,-0.13264c0.03979,-0.11938 -0.02653,-0.1857 -0.21223,-0.1857c-0.45098,0 -1.0346,-1.11419 -1.406,-2.65283c-0.09285,-0.41119 -0.17243,-0.58362 -0.1857,-0.39792c-0.01326,0.34487 0.15917,1.52538 0.31834,2.12227c0.06632,0.27855 -0.06632,0.49077 -0.75606,1.28662c-0.46425,0.53057 -1.23357,1.26009 -1.72434,1.61823c-0.49077,0.3714 -0.96828,0.79585 -1.0744,0.94176c-0.27855,0.41119 -3.63438,1.83045 -4.56287,1.93657c-0.58362,0.07958 -1.2203,0.34487 -3.03749,1.31315l-2.30796,1.20704l0.78259,1.32642c0.43772,0.72953 0.94176,1.44579 1.12745,1.57843c0.1857,0.14591 0.34487,0.3316 0.34487,0.41119c0,0.07958 0.1857,0.22549 0.41119,0.31834c0.30508,0.13264 0.5173,0.41119 0.91523,1.19377c0.42445,0.83564 0.72953,1.2203 1.64476,2.05594c3.01096,2.74568 6.03519,4.53634 9.6961,5.75664c7.25549,2.41408 15.10788,1.51211 21.75322,-2.50693c1.84372,-1.11419 4.82815,-3.56806 5.51789,-4.53634l0.27855,-0.38466l-0.30508,-0.34487c-0.17243,-0.17243 -0.82238,-0.74279 -1.44579,-1.24683c-0.62342,-0.49077 -1.20704,-1.0346 -1.29989,-1.18051c-0.09285,-0.15917 -0.54383,-0.45098 -0.99481,-0.64994c-0.45098,-0.21223 -0.94176,-0.50404 -1.0744,-0.66321c-0.34487,-0.38466 -0.68974,-0.34487 -0.8887,0.09285l-0.15917,0.3714l-0.96828,-0.5173c-0.67647,-0.3714 -1.08766,-0.703 -1.39274,-1.14072c-0.25202,-0.3316 -0.76932,-0.96828 -1.18051,-1.41926c-0.39792,-0.43772 -1.0744,-1.26009 -1.49885,-1.81719l-0.76932,-1.00808l0.34487,-0.95502c0.1857,-0.5173 0.46425,-1.12745 0.62342,-1.33968c0.14591,-0.21223 0.3714,-0.63668 0.49077,-0.94176c0.11938,-0.30508 0.39792,-0.83564 0.61015,-1.16725c0.38466,-0.58362 0.42445,-0.61015 0.90196,-0.54383c0.64994,0.07958 1.10093,-0.30508 1.2203,-1.08766c0.25202,-1.64476 0.53057,-2.65283 1.0346,-3.72723c0.43772,-0.95502 0.54383,-1.33968 0.54383,-1.9233c-0.01326,-0.39792 -0.07958,-0.86217 -0.17243,-1.0346c-0.13264,-0.25202 -0.10611,-0.3714 0.26528,-0.90196c0.3316,-0.47751 0.43772,-0.79585 0.49077,-1.45906c0.05306,-0.75606 0.07958,-0.82238 0.25202,-0.62342c0.15917,0.21223 0.17243,0.1857 0.10611,-0.22549l-0.07958,-0.46425l0.27855,0.46425c0.15917,0.25202 0.23875,0.34487 0.1857,0.19896c-0.06632,-0.14591 -0.11938,-0.74279 -0.13264,-1.32642c-0.02653,-0.58362 -0.06632,-1.49885 -0.10611,-2.02942c-0.05306,-0.62342 -0.02653,-0.94176 0.05306,-0.8887c0.47751,0.29181 -0.19896,-1.60496 -0.80911,-2.25491c-0.50404,-0.54383 -0.66321,-0.83564 -0.35813,-0.64994c0.09285,0.06632 0.11938,0.02653 0.07958,-0.10611c-0.05306,-0.10611 -0.02653,-0.27855 0.02653,-0.38466c0.07958,-0.11938 0.01326,-0.31834 -0.1857,-0.58362c-0.17243,-0.21223 -0.34487,-0.53057 -0.39792,-0.703c-0.05306,-0.15917 -0.1857,-0.29181 -0.27855,-0.29181c-0.10611,0 -0.22549,-0.06632 -0.27855,-0.15917c-0.06632,-0.10611 -0.01326,-0.11938 0.15917,-0.06632c0.14591,0.05306 0.06632,-0.06632 -0.21223,-0.3316c-0.25202,-0.23875 -0.47751,-0.49077 -0.47751,-0.57036c-0.01326,-0.06632 -0.02653,-0.19896 -0.03979,-0.26528c0,-0.07958 -0.22549,-0.3714 -0.47751,-0.63668c-0.25202,-0.26528 -0.46425,-0.54383 -0.46425,-0.59689c0,-0.26528 -0.80911,-0.55709 -1.55191,-0.55709c-0.8887,0 -1.2203,-0.19896 -1.56517,-0.96828c-0.13264,-0.27855 -0.3714,-0.59689 -0.54383,-0.703c-0.45098,-0.30508 -1.84372,-0.61015 -2.94464,-0.64994c-0.62342,-0.02653 -1.06113,-0.11938 -1.19377,-0.23875c-0.47751,-0.42445 -2.6263,-0.72953 -3.43542,-0.47751zM37.78146,5.09051c0,0.10611 -0.06632,0.15917 -0.13264,0.11938c-0.07958,-0.05306 -0.10611,-0.14591 -0.06632,-0.21223c0.11938,-0.1857 0.19896,-0.14591 0.19896,0.09285zM40.08942,12.65108c0.03979,0.10611 0.02653,0.15917 -0.05306,0.11938c-0.07958,-0.03979 -0.13264,-0.13264 -0.13264,-0.21223c0,-0.1857 0.09285,-0.14591 0.1857,0.09285zM29.08017,16.17934c-0.06632,0.09285 -0.02653,0.11938 0.11938,0.06632c0.10611,-0.03979 0.22549,0 0.26528,0.09285c0.05306,0.11938 -0.14591,0.13264 -0.83564,0.06632c-0.49077,-0.05306 -1.11419,-0.05306 -1.37947,0.01326c-0.59689,0.13264 -0.61015,0.05306 -0.03979,-0.19896c0.53057,-0.23875 2.00289,-0.26528 1.87025,-0.03979zM28.62919,16.68338c0.22549,0.06632 0.05306,0.09285 -0.55709,0.09285c-0.49077,0 -0.86217,-0.05306 -0.82238,-0.11938c0.07958,-0.13264 0.91523,-0.11938 1.37947,0.02653zM27.96598,17.14762c0,0.10611 -0.09285,0.19896 -0.21223,0.19896c-0.1857,0 -0.1857,-0.03979 -0.05306,-0.19896c0.09285,-0.10611 0.1857,-0.19896 0.21223,-0.19896c0.02653,0 0.05306,0.09285 0.05306,0.19896zM29.06691,17.24047c0.21223,0.10611 0.3316,0.25202 0.29181,0.34487c-0.03979,0.10611 -0.06632,0.23875 -0.06632,0.30508c0,0.06632 -0.14591,0.11938 -0.3316,0.11938c-0.1857,0 -0.3316,0.06632 -0.3316,0.14591c0,0.10611 -0.06632,0.10611 -0.19896,-0.01326c-0.15917,-0.13264 -0.19896,-0.13264 -0.19896,0.05306c0,0.11938 0.09285,0.21223 0.21223,0.21223c0.10611,0 0.15917,0.06632 0.11938,0.13264c-0.05306,0.07958 -0.11938,0.10611 -0.17243,0.07958c-0.05306,-0.02653 -0.19896,0.02653 -0.3316,0.11938c-0.19896,0.14591 -0.11938,0.1857 0.58362,0.3316c0.61015,0.13264 0.83564,0.23875 0.91523,0.45098c0.05306,0.15917 0.13264,0.26528 0.1857,0.23875c0.13264,-0.05306 0.79585,0.13264 0.98155,0.27855c0.10611,0.09285 0.15917,0.06632 0.15917,-0.09285c0,-0.25202 0.06632,-0.26528 0.41119,-0.07958c0.3316,0.1857 0.3316,0.53057 0,0.43772c-0.1857,-0.03979 -0.26528,0.02653 -0.31834,0.3316c-0.05306,0.25202 -0.1857,0.42445 -0.38466,0.47751c-0.1857,0.06632 -0.23875,0.11938 -0.13264,0.17243c0.23875,0.09285 0.19896,0.41119 -0.10611,0.66321c-0.14591,0.13264 -0.27855,0.38466 -0.27855,0.57036c-0.01326,0.22549 -0.03979,0.25202 -0.07958,0.09285c-0.06632,-0.27855 -0.30508,-0.30508 -0.30508,-0.02653c0,0.10611 -0.05306,0.19896 -0.13264,0.19896c-0.06632,0 -0.13264,0.14591 -0.13264,0.3316c0,0.17243 -0.07958,0.3714 -0.1857,0.42445c-0.09285,0.05306 -0.26528,0.27855 -0.38466,0.50404c-0.14591,0.26528 -0.21223,0.31834 -0.22549,0.15917c0,-0.11938 -0.06632,-0.22549 -0.14591,-0.22549c-0.09285,0 -0.11938,0.13264 -0.05306,0.35813c0.19896,0.83564 0,1.2203 -0.53057,1.02134c-0.15917,-0.06632 -0.15917,-0.11938 0.01326,-0.38466c0.1857,-0.29181 0.17243,-0.3714 -0.22549,-1.15398c-0.27855,-0.57036 -0.41119,-1.02134 -0.41119,-1.43253c0,-0.31834 -0.10611,-0.79585 -0.23875,-1.06113c-0.25202,-0.50404 -0.34487,-1.80393 -0.13264,-2.05594c0.07958,-0.09285 0.05306,-0.29181 -0.06632,-0.50404c-0.10611,-0.19896 -0.15917,-0.45098 -0.11938,-0.54383c0.03979,-0.10611 -0.02653,-0.21223 -0.17243,-0.25202c-0.13264,-0.03979 0.14591,-0.06632 0.63668,-0.07958c0.8887,-0.01326 1.18051,-0.15917 1.18051,-0.57036c0,-0.27855 0.21223,-0.30508 0.703,-0.07958zM27.17013,17.46596c0,0.06632 -0.09285,0.15917 -0.21223,0.19896c-0.1857,0.06632 -0.19896,0.05306 -0.05306,-0.11938c0.1857,-0.22549 0.26528,-0.25202 0.26528,-0.07958zM25.84372,21.79008c0,0.11938 -0.11938,0.19896 -0.29181,0.19896c-0.29181,-0.01326 -0.30508,-0.01326 -0.05306,-0.19896c0.3316,-0.25202 0.34487,-0.25202 0.34487,0zM28.0323,25.70301c-0.03979,0.06632 -0.15917,0.13264 -0.23875,0.13264c-0.09285,0 -0.07958,-0.05306 0.03979,-0.13264c0.25202,-0.15917 0.30508,-0.15917 0.19896,0zM28.49655,26.23357c0.19896,0.10611 0.23875,0.26528 0.21223,0.74279c-0.02653,0.57036 -0.22549,0.86217 -0.54383,0.83564c-0.06632,0 -0.05306,-0.03979 0.05306,-0.07958c0.13264,-0.05306 0.14591,-0.09285 0.01326,-0.17243c-0.1857,-0.11938 -0.29181,-0.83564 -0.1857,-1.23357c0.07958,-0.26528 0.11938,-0.26528 0.45098,-0.09285zM17.72605,29.21801c0.05306,0.07958 -0.01326,0.02653 -0.15917,-0.11938c-0.25202,-0.27855 -1.00808,-1.71108 -1.00808,-1.89677c0,-0.05306 0.25202,0.34487 0.54383,0.8887c0.30508,0.54383 0.58362,1.06113 0.62342,1.12745zM21.91753,34.12575c-0.05306,0.13264 0,0.19896 0.13264,0.19896c0.11938,0 0.21223,0.10611 0.21223,0.26528c0,0.15917 0.09285,0.46425 0.21223,0.68974c0.14591,0.29181 0.17243,0.43772 0.06632,0.54383c-0.10611,0.10611 -0.14591,0.07958 -0.14591,-0.09285c0,-0.17243 -0.06632,-0.21223 -0.27855,-0.14591c-0.1857,0.06632 -0.25202,0.03979 -0.19896,-0.03979c0.03979,-0.07958 -0.09285,-0.17243 -0.3316,-0.22549c-0.27855,-0.06632 -0.38466,-0.14591 -0.3316,-0.27855c0.03979,-0.11938 0.01326,-0.15917 -0.05306,-0.11938c-0.11938,0.07958 -0.1857,-0.10611 -0.14591,-0.3714c0.01326,-0.06632 -0.03979,-0.07958 -0.10611,-0.03979c-0.21223,0.13264 -2.00289,-2.93138 -2.00289,-3.44868c0,-0.07958 0.68974,0.53057 1.52538,1.36621c1.02134,0.99481 1.49885,1.56517 1.44579,1.69781zM15.69664,31.81778c0.05306,0.06632 0.15917,0.10611 0.23875,0.07958c0.19896,-0.06632 1.08766,0.92849 1.10093,1.24683c0.01326,0.13264 -0.02653,0.22549 -0.07958,0.1857c-0.05306,-0.02653 -0.09285,0.02653 -0.09285,0.13264c0,0.10611 0.03979,0.17243 0.06632,0.13264c0.09285,-0.09285 0.42445,0.19896 0.42445,0.35813c0,0.09285 -0.06632,0.07958 -0.17243,-0.01326c-0.14591,-0.10611 -0.17243,-0.07958 -0.15917,0.11938c0.01326,0.14591 0.05306,0.30508 0.10611,0.34487c0.05306,0.05306 0.09285,0.15917 0.09285,0.23875c0,0.07958 -0.09285,0 -0.21223,-0.15917c-0.10611,-0.15917 -0.27855,-0.29181 -0.3714,-0.29181c-0.09285,0 -0.23875,-0.13264 -0.31834,-0.30508c-0.07958,-0.15917 -0.14591,-0.21223 -0.14591,-0.13264c-0.02653,0.31834 -0.39792,0.17243 -0.58362,-0.22549c-0.19896,-0.3714 -0.19896,-0.38466 0.05306,-0.26528c0.22549,0.13264 0.23875,0.11938 0.09285,-0.19896c-0.07958,-0.1857 -0.23875,-0.31834 -0.34487,-0.30508c-0.10611,0.02653 -0.21223,-0.03979 -0.23875,-0.13264c-0.01326,-0.09285 0,-0.10611 0.02653,-0.03979c0.03979,0.06632 0.1857,0.09285 0.31834,0.05306c0.17243,-0.03979 0.26528,0 0.26528,0.10611c0,0.13264 0.06632,0.11938 0.22549,-0.03979c0.19896,-0.21223 0.22549,-0.21223 0.39792,0c0.15917,0.19896 0.17243,0.1857 0.03979,-0.07958c-0.11938,-0.23875 -0.1857,-0.27855 -0.3316,-0.15917c-0.14591,0.11938 -0.22549,0.06632 -0.39792,-0.25202c-0.10611,-0.22549 -0.23875,-0.41119 -0.27855,-0.41119c-0.02653,0 0,0.11938 0.07958,0.25202c0.21223,0.41119 0.17243,0.41119 -0.41119,0.10611c-0.29181,-0.15917 -0.46425,-0.30508 -0.38466,-0.3316c0.09285,-0.03979 0.22549,0.01326 0.30508,0.09285c0.17243,0.17243 0.3714,0.19896 0.34487,0.03979c-0.05306,-0.30508 0.1857,-0.41119 0.34487,-0.14591zM7.71161,33.67476l0.55709,0.01326l-0.45098,0.19896c-0.34487,0.14591 -0.53057,0.15917 -0.76932,0.05306c-0.34487,-0.15917 -0.42445,-0.49077 -0.09285,-0.35813c0.11938,0.03979 0.45098,0.07958 0.75606,0.09285zM15.85581,34.25839c0,0.10611 -0.05306,0.15917 -0.11938,0.11938c-0.05306,-0.03979 -0.10611,-0.11938 -0.10611,-0.19896c0,-0.06632 0.05306,-0.11938 0.10611,-0.11938c0.06632,0 0.11938,0.09285 0.11938,0.19896zM16.2272,34.19207c0.03979,0.06632 0.01326,0.13264 -0.05306,0.13264c-0.07958,0 -0.14591,-0.06632 -0.14591,-0.13264c0,-0.07958 0.02653,-0.13264 0.05306,-0.13264c0.03979,0 0.10611,0.05306 0.14591,0.13264zM17.42098,35.38584c0.13264,0.14591 0.21223,0.26528 0.17243,0.26528c-0.03979,0 -0.17243,-0.11938 -0.30508,-0.26528c-0.13264,-0.14591 -0.21223,-0.26528 -0.17243,-0.26528c0.03979,0 0.17243,0.11938 0.30508,0.26528zM23.98674,35.30626c0,0.03979 -0.05306,0.10611 -0.13264,0.14591c-0.06632,0.03979 -0.13264,0.01326 -0.13264,-0.05306c0,-0.07958 0.06632,-0.14591 0.13264,-0.14591c0.07958,0 0.13264,0.02653 0.13264,0.05306zM23.01845,35.94294c-0.03979,0.09285 -0.06632,0.02653 -0.06632,-0.15917c0,-0.1857 0.02653,-0.25202 0.06632,-0.17243c0.02653,0.09285 0.02653,0.25202 0,0.3316zM17.95154,36.23475c0,0.25202 -0.03979,0.42445 -0.09285,0.39792c-0.10611,-0.06632 -0.03979,-0.84891 0.06632,-0.84891c0.01326,0 0.02653,0.19896 0.02653,0.45098zM23.45617,35.91641c0,0.06632 -0.06632,0.13264 -0.14591,0.13264c-0.06632,0 -0.09285,-0.06632 -0.05306,-0.13264c0.03979,-0.07958 0.10611,-0.13264 0.14591,-0.13264c0.02653,0 0.05306,0.05306 0.05306,0.13264zM10.85522,40.21399c0,0.10611 -0.05306,0.22549 -0.10611,0.26528c-0.05306,0.02653 -0.10611,-0.05306 -0.10611,-0.19896c0,-0.13264 0.05306,-0.25202 0.10611,-0.25202c0.05306,0 0.10611,0.07958 0.10611,0.1857zM24.5173,40.46601c0,0.05306 0.05306,0.07958 0.11938,0.02653c0.06632,-0.03979 0.15917,-0.01326 0.21223,0.06632c0.11938,0.1857 0.43772,0.17243 0.50404,-0.03979c0.02653,-0.07958 0.03979,-0.05306 0.02653,0.06632c-0.05306,0.27855 0.07958,0.30508 0.31834,0.06632c0.14591,-0.13264 0.15917,-0.09285 0.07958,0.17243c-0.05306,0.1857 -0.15917,0.3714 -0.23875,0.42445c-0.22549,0.13264 -0.47751,-0.02653 -0.39792,-0.26528c0.06632,-0.14591 0.02653,-0.1857 -0.10611,-0.13264c-0.10611,0.03979 -0.38466,-0.13264 -0.64994,-0.38466c-0.27855,-0.27855 -0.34487,-0.39792 -0.15917,-0.27855c0.15917,0.09285 0.29181,0.21223 0.29181,0.27855zM15.32524,42.36279c-0.03979,0.03979 -0.15917,0.05306 -0.25202,0.01326c-0.10611,-0.03979 -0.06632,-0.07958 0.07958,-0.07958c0.14591,-0.01326 0.22549,0.02653 0.17243,0.06632zM16.10783,42.50869c-0.05306,0.11938 -0.01326,0.26528 0.07958,0.3316c0.13264,0.07958 0.10611,0.10611 -0.05306,0.10611c-0.17243,0 -0.23875,-0.10611 -0.23875,-0.3316c0,-0.1857 0.06632,-0.3316 0.14591,-0.3316c0.07958,0 0.10611,0.09285 0.06632,0.22549zM14.43654,43.01273c0,0.1857 -0.05306,0.3316 -0.11938,0.3316c-0.07958,0 -0.10611,-0.47751 -0.02653,-0.63668c0.06632,-0.13264 0.14591,0.02653 0.14591,0.30508z"></path><path d="M16.12109,33.01156c0.09285,0.09285 0.19896,0.13264 0.23875,0.09285c0.03979,-0.03979 -0.02653,-0.11938 -0.15917,-0.15917c-0.1857,-0.07958 -0.19896,-0.06632 -0.07958,0.06632z"></path><path d="M16.50575,33.8472c0.03979,0.10611 0.17243,0.22549 0.29181,0.27855c0.17243,0.06632 0.17243,0.02653 -0.03979,-0.19896c-0.27855,-0.31834 -0.34487,-0.3316 -0.25202,-0.07958z"></path><path d="M14.43654,9.52073c-0.10611,0.06632 -0.13264,0.13264 -0.06632,0.13264c0.07958,0 0.22549,-0.06632 0.3316,-0.13264c0.10611,-0.06632 0.14591,-0.13264 0.06632,-0.13264c-0.06632,0 -0.22549,0.06632 -0.3316,0.13264z"></path><path d="M18.5219,13.87138c-0.34487,0.26528 -0.59689,0.55709 -0.57036,0.63668c0.02653,0.07958 -0.01326,0.21223 -0.07958,0.27855c-0.17243,0.17243 -0.26528,0.99481 -0.13264,1.2203c0.09285,0.14591 0.14591,0.11938 0.27855,-0.11938c0.13264,-0.23875 0.11938,-0.31834 -0.01326,-0.42445c-0.14591,-0.09285 -0.11938,-0.10611 0.05306,-0.05306c0.17243,0.05306 0.26528,0 0.31834,-0.17243c0.09285,-0.34487 0.63668,-0.45098 1.406,-0.29181c0.84891,0.19896 1.26009,0.39792 1.32642,0.68974c0.06632,0.22549 0.01326,0.23875 -0.47751,0.15917c-1.00808,-0.17243 -1.64476,-0.11938 -1.93657,0.14591c-0.15917,0.14591 -0.27855,0.19896 -0.27855,0.13264c0,-0.06632 -0.10611,0.09285 -0.23875,0.34487c-0.23875,0.43772 -0.23875,0.46425 -0.01326,0.703c0.13264,0.14591 0.30508,0.22549 0.41119,0.1857c0.09285,-0.02653 0.27855,0 0.41119,0.06632c0.22549,0.11938 0.23875,0.09285 0.15917,-0.1857c-0.09285,-0.26528 -0.07958,-0.27855 0.10611,-0.11938c0.29181,0.23875 0.84891,0.09285 0.95502,-0.25202c0.09285,-0.30508 0.19896,-0.31834 0.66321,-0.10611c0.39792,0.1857 0.42445,0.31834 0.05306,0.41119c-0.15917,0.03979 -0.23875,0.13264 -0.1857,0.21223c0.03979,0.07958 0.01326,0.14591 -0.06632,0.14591c-0.07958,0 -0.11938,0.05306 -0.06632,0.13264c0.03979,0.06632 0.14591,0.09285 0.25202,0.05306c0.09285,-0.03979 0.17243,0.02653 0.17243,0.14591c0,0.10611 -0.06632,0.1857 -0.14591,0.17243c-0.07958,0 -0.23875,0.01326 -0.34487,0.06632c-0.10611,0.03979 -0.29181,0.10611 -0.39792,0.13264c-0.10611,0.03979 0.05306,0.07958 0.35813,0.07958c0.58362,0.01326 2.25491,-0.54383 1.87025,-0.62342c-0.13264,-0.02653 -0.23875,-0.09285 -0.23875,-0.15917c0,-0.05306 0.11938,-0.07958 0.26528,-0.03979c0.19896,0.05306 0.26528,0 0.26528,-0.19896c0,-0.15917 0.10611,-0.35813 0.25202,-0.45098c0.13264,-0.09285 0.3714,-0.42445 0.53057,-0.72953c0.31834,-0.63668 0.34487,-0.75606 0.13264,-0.62342c-0.14591,0.07958 -0.78259,-0.53057 -0.78259,-0.76932c0,-0.05306 -0.09285,-0.10611 -0.19896,-0.10611c-0.11938,0 -0.26528,-0.13264 -0.3316,-0.30508c-0.06632,-0.15917 -0.11938,-0.23875 -0.11938,-0.15917c-0.01326,0.06632 -0.10611,-0.01326 -0.22549,-0.1857c-0.15917,-0.22549 -0.25202,-0.26528 -0.3714,-0.14591c-0.10611,0.10611 -0.09285,0.17243 0.05306,0.26528c0.31834,0.19896 0.06632,0.15917 -0.34487,-0.06632c-0.21223,-0.10611 -0.30508,-0.19896 -0.21223,-0.19896c0.22549,0 0.19896,-0.22549 -0.05306,-0.31834c-0.10611,-0.03979 -0.17243,-0.02653 -0.13264,0.03979c0.03979,0.05306 -0.25202,0.11938 -0.64994,0.13264c-0.38466,0.01326 -0.74279,-0.03979 -0.79585,-0.11938c-0.11938,-0.19896 -0.19896,-0.15917 -0.8887,0.3714zM20.68396,16.11302c0.05306,0.05306 -0.3316,0.10611 -0.87543,0.10611c-0.80911,0 -0.94176,-0.02653 -0.82238,-0.1857c0.15917,-0.1857 1.48559,-0.13264 1.69781,0.07958zM19.94117,16.55074c-0.03979,0.06632 -0.1857,0.13264 -0.30508,0.13264c-0.19896,0 -0.19896,-0.02653 -0.02653,-0.13264c0.26528,-0.17243 0.43772,-0.17243 0.3316,0z"></path><path d="M21.50634,21.07382c-0.17243,0.06632 -0.30508,0.15917 -0.30508,0.21223c0,0.23875 0.42445,0.703 0.63668,0.68974c0.15917,0 0.13264,-0.03979 -0.07958,-0.13264c-0.17243,-0.06632 -0.26528,-0.17243 -0.22549,-0.25202c0.10611,-0.17243 0.50404,-0.17243 0.68974,0.01326c0.07958,0.07958 0.21223,0.10611 0.29181,0.05306c0.3714,-0.22549 -0.55709,-0.75606 -1.00808,-0.58362z"></path><path d="M22.81949,23.19608l-0.31834,0.38466l0.31834,0.11938c0.39792,0.14591 0.43772,0.11938 0.47751,-0.43772c0.03979,-0.57036 -0.06632,-0.58362 -0.47751,-0.06632z"></path><path d="M15.67011,23.54095c-0.23875,0.09285 -0.21223,0.30508 0.02653,0.30508c0.10611,0 0.19896,-0.09285 0.19896,-0.19896c0,-0.10611 -0.01326,-0.19896 -0.02653,-0.1857c-0.02653,0 -0.11938,0.03979 -0.19896,0.07958z"></path><path d="M5.56282,39.06001c0.17243,0.21223 0.3714,0.42445 0.43772,0.50404c0.15917,0.1857 -0.14591,-0.35813 -0.35813,-0.63668c-0.10611,-0.11938 -0.23875,-0.22549 -0.29181,-0.22549c-0.06632,0 0.02653,0.15917 0.21223,0.35813z"></path></g></g><path d="M2,24c0,-12.15026 9.84974,-22 22,-22c12.15026,0 22,9.84974 22,22c0,12.15026 -9.84974,22 -22,22c-12.15026,0 -22,-9.84974 -22,-22z" id="base 1 5 1" fill="none" stroke-width="1"></path><path d="M2,24c0,-12.15026 9.84974,-22 22,-22c12.15026,0 22,9.84974 22,22c0,12.15026 -9.84974,22 -22,22c-12.15026,0 -22,-9.84974 -22,-22z" id="base 1 1 1" fill="none" stroke-width="1"></path><g fill="#000000" stroke-width="1" font-family="Roboto, sans-serif" font-weight="normal" font-size="14" text-anchor="start"><g></g></g><rect x="2" y="2" width="44" height="22" fill="none" stroke-width="1"></rect><path d="M2,24v-22h44v22z" fill="none" stroke-width="1"></path><path d="M2,24v-22h44v22z" fill="none" stroke-width="1"></path><path d="M2,24v-22h44v22z" fill="none" stroke-width="1"></path><path d="M2,24v-22h44v22z" fill="none" stroke-width="1"></path><g fill="#000000" stroke-width="1" font-family="Roboto, sans-serif" font-weight="normal" font-size="14" text-anchor="start"><g></g></g><rect x="2" y="2" width="44" height="22" fill="none" stroke-width="1"></rect><path d="M2,24v-22h44v22z" fill="none" stroke-width="1"></path><path d="M2,24v-22h44v22z" fill="none" stroke-width="1"></path><path d="M2,24v-22h44v22z" fill="none" stroke-width="1"></path><path d="M2,24v-22h44v22z" fill="none" stroke-width="1"></path></g></svg>